<?xml version="1.0" encoding="UTF-8"?>
<!DOCTYPE svg PUBLIC "-//W3C//DTD SVG 1.1//EN" "http://www.w3.org/Graphics/SVG/1.1/DTD/svg11.dtd">
<svg xmlns="http://www.w3.org/2000/svg" version="1.1" width="202px" height="220px" style="shape-rendering:geometricPrecision; text-rendering:geometricPrecision; image-rendering:optimizeQuality; fill-rule:evenodd; clip-rule:evenodd" xmlns:xlink="http://www.w3.org/1999/xlink">
<g><path style="opacity:0.031" fill="#f0f0f2" d="M 82.5,0.5 C 83.224,2.21839 83.8906,4.05172 84.5,6C 83.6842,13.4205 83.1842,20.9205 83,28.5C 82.6258,27.5838 82.1258,26.7504 81.5,26C 82.1472,22.7515 82.4805,19.4181 82.5,16C 82.4499,12.3969 81.7832,9.06357 80.5,6C 82.1922,4.59928 82.8588,2.76595 82.5,0.5 Z"/></g>
<g><path style="opacity:0.486" fill="#939698" d="M 62.5,25.5 C 63.8333,26.1667 63.8333,26.1667 62.5,25.5 Z"/></g>
<g><path style="opacity:0.51" fill="#939698" d="M 102.5,25.5 C 103.833,26.1667 103.833,26.1667 102.5,25.5 Z"/></g>
<g><path style="opacity:0.016" fill="#ededef" d="M 42.5,23.5 C 43.6129,24.9464 43.7796,26.6131 43,28.5C 42.5065,26.8659 42.3398,25.1992 42.5,23.5 Z"/></g>
<g><path style="opacity:0.999" fill="#565656" d="M 120.5,33.5 C 121.209,34.404 122.209,34.7373 123.5,34.5C 140.126,40.96 151.626,52.6267 158,69.5C 159.475,74.0633 160.308,78.7299 160.5,83.5C 160.5,84.8333 160.5,86.1667 160.5,87.5C 155.199,90.4334 149.533,92.2668 143.5,93C 144.406,91.3005 144.739,89.4672 144.5,87.5C 144.795,85.2646 144.461,83.2646 143.5,81.5C 141.335,72.8354 137.335,65.1687 131.5,58.5C 131.027,57.0937 130.027,56.427 128.5,56.5C 127.128,55.4884 125.795,54.4884 124.5,53.5C 124.027,52.0937 123.027,51.427 121.5,51.5C 113.022,47.4688 104.022,45.8021 94.5,46.5C 93.5386,44.7354 93.2053,42.7354 93.5,40.5C 93.2161,37.2234 93.5495,34.0567 94.5,31C 103.413,29.8654 112.08,30.6987 120.5,33.5 Z"/></g>
<g><path style="opacity:0.678" fill="#98c1d5" d="M 83.5,32.5 C 82.8333,33.8333 82.1667,33.8333 81.5,32.5C 82.2216,32.0825 82.7216,31.4158 83,30.5C 83.4643,31.0944 83.631,31.7611 83.5,32.5 Z"/></g>
<g><path style="opacity:0.999" fill="#136994" d="M 100.5,132.5 C 100.831,153.34 100.497,174.007 99.5,194.5C 97.2034,192.706 95.0367,190.706 93,188.5C 73.9359,164.089 57.2692,138.089 43,110.5C 38.288,95.7411 38.4546,81.0744 43.5,66.5C 51.408,49.9292 64.0747,38.5959 81.5,32.5C 82.1667,33.8333 82.8333,33.8333 83.5,32.5C 84.7079,31.7659 86.0413,31.4326 87.5,31.5C 87.529,37.2102 87.029,42.8769 86,48.5C 60.508,60.9917 52.1747,80.6584 61,107.5C 69.339,123.249 82.5057,131.582 100.5,132.5 Z"/></g>
<g><path style="opacity:0.016" fill="#cececf" d="M 123.5,34.5 C 122.209,34.7373 121.209,34.404 120.5,33.5C 121.496,33.5858 122.329,33.2524 123,32.5C 123.464,33.0944 123.631,33.7611 123.5,34.5 Z"/></g>
<g><path style="opacity:0.349" fill="#cccccc" d="M 93.5,40.5 C 93.2053,42.7354 93.5386,44.7354 94.5,46.5C 93.5029,47.7125 92.5029,47.5458 91.5,46C 92.1094,44.0517 92.776,42.2184 93.5,40.5 Z"/></g>
<g><path style="opacity:0.998" fill="#5b5b5b" d="M 126.5,86.5 C 126.737,85.209 126.404,84.209 125.5,83.5C 124.766,82.2921 124.433,80.9587 124.5,79.5C 124.167,78.5 123.5,77.8333 122.5,77.5C 115.798,66.9808 106.131,61.9808 93.5,62.5C 92.5,62.5 91.5,62.5 90.5,62.5C 90.5,61.1667 90.5,59.8333 90.5,58.5C 89.3998,52.1058 92.0665,49.7725 98.5,51.5C 113.445,52.0784 124.612,58.0784 132,69.5C 136.102,76.8707 138.269,84.0374 138.5,91C 138.369,93.2527 137.869,95.4194 137,97.5C 132.919,98.9715 128.919,100.638 125,102.5C 126.086,97.3007 126.586,91.9674 126.5,86.5 Z"/></g>
<g><path style="opacity:0.006" fill="#dcdcdd" d="M 121.5,51.5 C 123.027,51.427 124.027,52.0937 124.5,53.5C 122.877,54.4908 121.877,53.8241 121.5,51.5 Z"/></g>
<g><path style="opacity:0.718" fill="#b1b1b1" d="M 128.5,56.5 C 130.027,56.427 131.027,57.0937 131.5,58.5C 129.973,58.573 128.973,57.9063 128.5,56.5 Z"/></g>
<g><path style="opacity:0.412" fill="#c3c3c3" d="M 90.5,58.5 C 90.5,59.8333 90.5,61.1667 90.5,62.5C 91.5,62.5 92.5,62.5 93.5,62.5C 92.4324,63.4345 91.099,63.7678 89.5,63.5C 89.2155,61.5853 89.5489,59.9187 90.5,58.5 Z"/></g>
<g><path style="opacity:0.118" fill="#939698" d="M 43.5,66.5 C 42.8333,65.1667 42.8333,65.1667 43.5,66.5 Z"/></g>
<g><path style="opacity:0.027" fill="#f1f1f3" d="M 85.5,85.5 C 83.6264,86.2852 81.6264,86.9518 79.5,87.5C 79.0825,86.7784 78.4158,86.2784 77.5,86C 79.1341,85.5065 80.8008,85.3398 82.5,85.5C 82.3335,75.8276 82.5002,66.1609 83,56.5C 82.8545,66.5519 83.6879,76.2186 85.5,85.5 Z"/></g>
<g><path style="opacity:0.021" fill="#ededef" d="M 122.5,77.5 C 123.5,77.8333 124.167,78.5 124.5,79.5C 123.732,80.2625 123.232,81.2625 123,82.5C 122.506,80.8659 122.34,79.1992 122.5,77.5 Z"/></g>
<g><path style="opacity:0.055" fill="#f1f1f1" d="M 107.5,79.5 C 107.56,78.9569 107.893,78.6236 108.5,78.5C 109.773,79.2565 109.773,79.9232 108.5,80.5C 108.5,79.8333 108.167,79.5 107.5,79.5 Z"/></g>
<g><path style="opacity:0.997" fill="#5f5f5f" d="M 107.5,79.5 C 108.167,79.5 108.5,79.8333 108.5,80.5C 108.768,82.099 108.434,83.4324 107.5,84.5C 106.596,85.209 106.263,86.209 106.5,87.5C 105.168,93.4937 103.835,99.4937 102.5,105.5C 101.678,107.389 100.845,109.389 100,111.5C 97.5749,106.31 95.4082,100.977 93.5,95.5C 90.6717,93.7795 87.6717,92.4462 84.5,91.5C 84.1583,90.6618 83.4916,90.3284 82.5,90.5C 81.391,90.4431 80.391,90.1098 79.5,89.5C 79.1667,88.8333 78.8333,88.1667 78.5,87.5C 78.8333,87.5 79.1667,87.5 79.5,87.5C 81.6264,86.9518 83.6264,86.2852 85.5,85.5C 92.73,83.1921 100.063,81.1921 107.5,79.5 Z"/></g>
<g><path style="opacity:0.192" fill="#c6c6c7" d="M 143.5,81.5 C 144.461,83.2646 144.795,85.2646 144.5,87.5C 143.527,87.0133 142.527,86.5133 141.5,86C 143.107,84.951 143.773,83.451 143.5,81.5 Z"/></g>
<g><path style="opacity:0.008" fill="#f6f7f8" d="M 58.5,85.5 C 59.8333,86.1667 59.8333,86.1667 58.5,85.5 Z"/></g>
<g><path style="opacity:0.022" fill="#ededef" d="M 60.5,86.5 C 61.9464,85.3871 63.6131,85.2204 65.5,86C 63.8659,86.4935 62.1992,86.6602 60.5,86.5 Z"/></g>
<g><path style="opacity:0.435" fill="#bababa" d="M 107.5,84.5 C 108.815,85.8946 108.481,86.8946 106.5,87.5C 106.263,86.209 106.596,85.209 107.5,84.5 Z"/></g>
<g><path style="opacity:0.016" fill="#e7e7e9" d="M 125.5,83.5 C 126.404,84.209 126.737,85.209 126.5,86.5C 124.876,86.3601 123.71,87.0267 123,88.5C 122.5,87.3333 121.667,86.5 120.5,86C 121.667,85.5 122.5,84.6667 123,83.5C 124.071,86.1125 124.905,86.1125 125.5,83.5 Z"/></g>
<g><path style="opacity:0.265" fill="#cfcfd0" d="M 160.5,83.5 C 164.082,85.2086 164.082,86.5419 160.5,87.5C 160.5,86.1667 160.5,84.8333 160.5,83.5 Z"/></g>
<g><path style="opacity:0.545" fill="#b6b6b6" d="M 78.5,87.5 C 78.8333,88.1667 79.1667,88.8333 79.5,89.5C 76.5404,88.968 76.2071,88.3013 78.5,87.5 Z"/></g>
<g><path style="opacity:1" fill="#88c3dd" d="M 159.5,102.5 C 159.5,100.5 159.5,98.5 159.5,96.5C 158.5,96.5 157.5,96.5 156.5,96.5C 158.044,95.086 159.711,94.7526 161.5,95.5C 160.933,97.9823 160.266,100.316 159.5,102.5 Z"/></g>
<g><path style="opacity:1" fill="#1d93c1" d="M 156.5,96.5 C 157.5,96.5 158.5,96.5 159.5,96.5C 159.5,98.5 159.5,100.5 159.5,102.5C 159.196,105.522 158.696,108.522 158,111.5C 142.298,141.521 123.464,169.354 101.5,195C 100.563,195.692 99.8966,195.525 99.5,194.5C 100.497,174.007 100.831,153.34 100.5,132.5C 121.559,131.259 135.559,120.759 142.5,101C 147.154,99.3928 151.821,97.8928 156.5,96.5 Z"/></g>
<g><path style="opacity:0.035" fill="#939698" d="M 62.5,105.5 C 63.8333,106.167 63.8333,106.167 62.5,105.5 Z"/></g>
<g><path style="opacity:0.455" fill="#939698" d="M 102.5,105.5 C 103.833,106.167 103.833,106.167 102.5,105.5 Z"/></g>
<g><path style="opacity:0.021" fill="#f4f4f6" d="M 82.5,90.5 C 83.4916,90.3284 84.1583,90.6618 84.5,91.5C 83.6695,102.326 83.1695,113.326 83,124.5C 82.5001,113.172 82.3335,101.838 82.5,90.5 Z"/></g>
<g><path style="opacity:0.017" fill="#f3f3f5" d="M 122.5,99.5 C 123.654,105.987 123.821,112.654 123,119.5C 122.5,112.842 122.334,106.175 122.5,99.5 Z"/></g>
<g><path style="opacity:0.4" fill="#b3b5b8" d="M 81.5,126.5 C 81.8966,125.475 82.5632,125.308 83.5,126C 82.9056,126.464 82.2389,126.631 81.5,126.5 Z"/></g>
</svg>
